# xmcd
#
# Track frame offsets:
#	150
#	12348
#	22940
#	36613
#	50056
#	60640
#	74079
#	88575
#	101255
#	111239
#	123089
#	132307
#	146370
#
# Disc length: 2143 seconds
#
# Revision: 0
# Processed by: cddbd v1.5.2PL0 Copyright (c) Steve Scherf et al.
# Submitted via: audiograbber 1.83.01
#
DISCID=b6085d0d
DTITLE=Trio Alpin - Danke für die Zeit
DYEAR=2011
DGENRE=volkstümlich
TTITLE0=Die Berg hab'n an Gipfl
TTITLE1=Auf zum Tanz
TTITLE2=Ja, mir geht's richtig guat
TTITLE3=Ein Vaterunser für die Berge
TTITLE4=Schneidig und zahnig
TTITLE5=I bin do, du bist do
TTITLE6=Im Gasthaus scheint alleweil die Sonne
TTITLE7=Ganz egal wann du da bist
TTITLE8=Auf geht's, zua geht's
TTITLE9=Trio Alpin Polkamedley
TTITLE10=Zillertaler Steinbockmarsch-Polka
TTITLE11=Im Herzen sind wir noch jung
TTITLE12=Danke für die Zeit
EXTD=
EXTT0=
EXTT1=
EXTT2=
EXTT3=
EXTT4=
EXTT5=
EXTT6=
EXTT7=
EXTT8=
EXTT9=
EXTT10=
EXTT11=
EXTT12=
PLAYORDER=
